<svg xmlns="http://www.w3.org/2000/svg" viewBox="0 0 141.51 45.74"><defs><style>.cls-1{fill:none;}.cls-2{fill:#231f20;}</style></defs><g id="Layer_2" data-name="Layer 2"><g id="Layer_1-2" data-name="Layer 1"><path class="cls-1" d="M77.66,17.74a.45.45,0,0,0-.55.2,1.49,1.49,0,0,0-.06,1.27,1.38,1.38,0,0,0,.25.42s.33.31.4.23C78.16,19.34,78.55,18.06,77.66,17.74Z"/><path class="cls-1" d="M30.89,22.5a17.47,17.47,0,0,0,2-1.71,9.91,9.91,0,0,0,1.81-2.16c.56-1.45-1.75-.27-2.28-.08-.71.26-1.38.55-2.17.8-1.15.37-2.5.73-3.71,1,.07.55.2,1.36.21,1.87a20.8,20.8,0,0,1-.23,3.09C28,24.46,29.51,23.52,30.89,22.5Z"/><path class="cls-1" d="M93.06,23.87c1.19.17,2.62-1.12,3.32-2.26s.41-4-.95-4.35c-.8-.21-2.13,2.13-2.51,3.22S91.79,23.67,93.06,23.87Z"/><path class="cls-1" d="M107.74,18a.58.58,0,0,0-.61,0,1.38,1.38,0,0,0-.59.87,1.32,1.32,0,0,0,.43,1.34,2.14,2.14,0,0,0,.42.34,3.6,3.6,0,0,0,.43-.93,2.94,2.94,0,0,0,.19-.64,1.45,1.45,0,0,0,0-.55A.7.7,0,0,0,107.74,18Z"/><path d="M36,5.25C32.77,2.44,22.54-2.69,12.37,1.72A20.64,20.64,0,0,0,3.75,8.55C-1.51,15.85.06,24.32.83,27.89,2.66,36.37,6.08,40.7,11.67,43.27c2.25,1,4.35-.81,4.49-.89,3.1-1.88,3.48-3.83,4.13-6.69a9.86,9.86,0,0,0-.53-5.56,2.54,2.54,0,0,0-.38-.74,22.87,22.87,0,0,0-4.69-4.09c-.31-.23-.59-.45-.88-.7a45.45,45.45,0,0,1-3.72-3.5c-.76-.8-1.46-1.55-2.23-2.47-.16-.19-.13-.49.43-.36.76.17,1.73.29,2.55.45l.18,0a27.7,27.7,0,0,1,3.89,1,13,13,0,0,1,1.75.68c.62.29,1.19.7,1.82,1a.68.68,0,0,0,1-.39.29.29,0,0,0,0-.27,1.27,1.27,0,0,0-.59-.53c-.08,0-.44-.25-.41-.36A14,14,0,0,1,19,18.48a8.75,8.75,0,0,1,.6-1.23,5.29,5.29,0,0,1,2-1.95,2.76,2.76,0,0,1,.75-.25A1.91,1.91,0,0,1,23,15a3.71,3.71,0,0,1,1.2.45,1.24,1.24,0,0,0,.67.22.42.42,0,0,0,.43-.46.27.27,0,0,0-.1-.16.74.74,0,0,0-.19-.15,5.89,5.89,0,0,0-1.21-.52,4.11,4.11,0,0,0-1.91-.11,2.59,2.59,0,0,0-.37.11,5.14,5.14,0,0,0-2.26,2c-.27.4-.43.82-.67,1.24a7.19,7.19,0,0,1-1,1.84,8.91,8.91,0,0,1-1.5-.53c-.25-.1-.53-.18-.8-.26a37.54,37.54,0,0,0-4-.86l-1-.17c-.66-.08-1.27-.17-1.91-.24-.39,0-.79-.24-1.18,0-.8.41-.73,1-.11,1.81.81,1.07,1.74,2.3,2.74,3.45a26.88,26.88,0,0,0,3.57,3.41c.13.11.39.32.47.37,1.9,1.21,4,3.34,4.55,5.15a8.58,8.58,0,0,1-.11,6A4.89,4.89,0,0,1,15.65,41a5.07,5.07,0,0,1-4.87-.85,23.21,23.21,0,0,1-6.44-7.94A23.52,23.52,0,0,1,2.57,18.69C3,15.94,4.09,9.36,9.89,5.08c6-4.4,12.75-3.37,14.35-3.1a21.13,21.13,0,0,1,13.19,8.37,12.47,12.47,0,0,1,2.33,5.3,27.58,27.58,0,0,1-.7,13,25.87,25.87,0,0,1-2.48,5.61,23.92,23.92,0,0,1-1.66,2.18c-2.29,3.1-3.72,3.71-5.67,5.19a12.39,12.39,0,0,1-2.06,1.21,9.4,9.4,0,0,1-1.33.61,4.86,4.86,0,0,0-1.3.57.87.87,0,0,0-.25,1.05,1,1,0,0,0,.88.67,5.48,5.48,0,0,0,2.21-.55,25.83,25.83,0,0,0,5.49-2.8c1.91-1.22,4.56-4.68,5.35-5.91A28.57,28.57,0,0,0,42.38,25.1c.72-6.48.25-11.36-3.14-16.28A22.33,22.33,0,0,0,36,5.25Z"/><path d="M26.14,27a65.29,65.29,0,0,0,5.38-3.81c1.43-1.21,3.24-2.52,3.86-4.24.71-2-1.16-1.68-2.34-1.34s-2.27.84-3.41,1.14-2.21.52-3.35.79c.06-.91,0-1.56.9-2.07A52,52,0,0,1,33,15c.61-.25.78-.09.83-.54s-.32-.24-.73-.08c-2,.77-4.41,1.42-6.35,2.38-1.33.66-2,1.19-2.16,2.72-.23,1.75.64,3.63.57,5.44a11.68,11.68,0,0,1-1.64,5c-.14.27-.36.61-.45.75-.22.38-.46,1,.14.85a1,1,0,0,0,.45-.35A17.1,17.1,0,0,0,26.06,27S26.12,27,26.14,27Zm.4-6.55c1.21-.32,2.56-.68,3.71-1,.79-.25,1.46-.54,2.17-.8.53-.19,2.84-1.37,2.28.08a9.91,9.91,0,0,1-1.81,2.16,17.47,17.47,0,0,1-2,1.71c-1.38,1-2.9,2-4.37,2.86a20.8,20.8,0,0,0,.23-3.09C26.74,21.76,26.61,21,26.54,20.4Z"/><path d="M23.18,16.57a.49.49,0,0,0-.47-.27A1.14,1.14,0,0,0,21.6,17a.8.8,0,0,0,.1.78c.3.35.67.18,1-.09S23.36,17,23.18,16.57Z"/><path class="cls-2" d="M83.52,4.09c-1.82.17-3.61,1-5.48,1.14A38.67,38.67,0,0,1,72,5.37a96.27,96.27,0,0,1-9.58-1.14c-2.68-.45-5.32-1.08-8-1.68-2-.46-4.6-1.38-6.52-.21a3.83,3.83,0,0,0-2,3.21c0,2.63,2.18,5.21,4.19,6.66a19.72,19.72,0,0,0,7.12,2.72c.64.15,1.27-.83.7-1a19,19,0,0,1-5.61-2.6,14.83,14.83,0,0,1-3.49-3.26c-.66-.92-1.19-2.5.19-3a5.73,5.73,0,0,1,3.1.06c2.1.42,3.49.79,5.38,1.19,2.22.48,4.45.71,6.71,1-.91,4.54-1.8,9.09-2.75,13.63a34.88,34.88,0,0,0-5.3,1.71c-.45.18-1.41,1.54-.49,1.36a53.89,53.89,0,0,1,5.41-1.28c-.25,1.32-.59,2.57-.84,3.9a66.32,66.32,0,0,0-1.58,9.26c-.15,2.93.14,5.72,2.39,7.92.58.56,1.46-.32,1-1.25-1.36-2.62-1.27-5.64-.83-8.57.48-3.23,1.2-6.31,1.9-9.47.14-.66.3-1.3.43-2,1.19,0,2.33-.07,3.53-.06A17.36,17.36,0,0,0,71,22.33c.49-.1,1.79-1.18.92-1.64-1.25-.65-2.73-.29-4.07-.28s-2.57.15-3.88.23q1.41-6.54,2.65-13.13c1.28.08,2.5.26,3.79.28A31.69,31.69,0,0,0,83,5.68C83.38,5.54,84.51,4,83.52,4.09Z"/><path class="cls-2" d="M141.36,20.69c-.35-.09-.75.29-1,.5A6.31,6.31,0,0,0,139,23.51a15.76,15.76,0,0,1-1.62,2.78,15.28,15.28,0,0,1-2.28,2.45c-.88.8-2,1.45-2.86.87a2.93,2.93,0,0,1-1.08-2.78,14.69,14.69,0,0,1,.52-3.16c.18-.78.63-1.85.09-2.58-1-1.3-2.34-.16-3.2.5a25.16,25.16,0,0,0-2.34,2.17c-.91.91-1.84,1-2.1-.88s.39-6,4.44-5.72a.69.69,0,0,0,.17-1.37c-2.85-.44-4.72.95-6.15,3.27a7.64,7.64,0,0,0-1.37,4.42,67.94,67.94,0,0,1-3.32,6.16c-.84,1.39-1.75,2.73-2.65,4.08-.63.94-2.17,3.15-3.29,2.8-.66-.2-.57-2.76-.33-3.92A47.57,47.57,0,0,1,112.79,28c.61-1.95,1.48-5.17.58-6.08s-3.09-1-4.83-.87a2.59,2.59,0,0,1,.14-.29c.64-1.09,1.42-2.73.67-4l0-.08a2.4,2.4,0,0,0-2.07-1,3,3,0,0,0-2,1,3.24,3.24,0,0,0-.7,1.15,3.32,3.32,0,0,0,1,3.77l.62.39c-.1.13-.51.81-.59.92-1.64,2.2-4.5,6.16-8.58,7.61-3.2,1.13-5.18-3.49-4.71-5.72,5.58-.64,6.07-4.5,6-6a3.2,3.2,0,0,0-3-3.14c-2.18,0-3.84,1.7-4.85,3.44a10.88,10.88,0,0,0-1.62,5.24,11.1,11.1,0,0,0,.49,3.44c0,.14,0,.36-.09.49a17.29,17.29,0,0,1-2.05,4.43,9.91,9.91,0,0,1-2.21,2.82,1.88,1.88,0,0,1-2,0A2.83,2.83,0,0,1,81.59,33a25.11,25.11,0,0,1,1.13-6c.4-1.6,1.6-3.83.64-4.93a2.69,2.69,0,0,0-1.27-.72,7.7,7.7,0,0,0-2.18-.4l-1,0a3.49,3.49,0,0,1-.65-.05c.08-.18.65-1.37.72-1.57.49-1.45,1-3.47-1.18-3.55-1.49,0-2.5,1.69-2.75,3a3,3,0,0,0,1.12,2.84c-.6.88-1.22,1.65-1.92,2.5-.21.25-.64.83-.26,1.15s.87-.24,1.08-.47c.82-.92,1.51-1.79,2.24-2.74a3.56,3.56,0,0,0,1.38,0,4.13,4.13,0,0,1,2.17.3c.52.26.37,1.06.3,1.52a18.76,18.76,0,0,1-.48,1.93c-.64,2.31-1,3.66-1.5,6.06-.34,1.77-.16,4.25,1.31,5.6,1.28,1.18,3,.77,4.27-.09,2.35-1.58,4-4.64,5-7.22l.13-.36a1.43,1.43,0,0,0,.13-.36c1.77,2.79,6.5,3.12,9.53,1.51,3.94-2.1,5.59-5.41,8.07-8.64,1.25.24,2.67-.21,3.44.12.57.24,0,2.45-.45,3.51a25.68,25.68,0,0,0-1.75,7c-.25,1.66.31,5.2,2.48,5.26h.19c2.2-.09,3.32-2.26,4.46-3.81,2.06-2.81,3.67-5.7,5.43-8.66a.2.2,0,0,0,.06.14c1.68,1.65,3.44,1,5.09-.16,1-.74,1.46-1.79,2.33-2.42s.73.11.71.78c-.09,2.5-1.76,7.05,1.37,7.89a4.54,4.54,0,0,0,5-1.75,29.43,29.43,0,0,0,5.34-8.49,2.15,2.15,0,0,0,.17-.78C141.5,20.78,141.44,20.71,141.36,20.69Zm-63.88-.83c-.07.08-.36-.19-.4-.23a1.41,1.41,0,0,1-.26-.42,1.52,1.52,0,0,1,.07-1.27.44.44,0,0,1,.54-.2C78.33,18.06,77.94,19.34,77.48,19.86Zm15.22.62c.37-1.09,1.71-3.43,2.51-3.22,1.36.36,1.67,3.17,1,4.35S94,24,92.84,23.87,92.36,21.48,92.7,20.48Zm15.09-1.54a3.61,3.61,0,0,1-.19.64,3.32,3.32,0,0,1-.44.93,3,3,0,0,1-.42-.34,1.34,1.34,0,0,1-.42-1.34,1.38,1.38,0,0,1,.59-.87.56.56,0,0,1,.6,0,.67.67,0,0,1,.28.43A1.45,1.45,0,0,1,107.79,18.94Z"/></g></g></svg>