<svg xmlns="http://www.w3.org/2000/svg" viewBox="0 0 468.27 180.52"><g id="Layer_2" data-name="Layer 2"><g id="Layer_4" data-name="Layer 4"><path d="M157.77,13.25c-7.64.72-15.13,4.11-23,4.81a162.34,162.34,0,0,1-25.54.57q-20.19-1.41-40.18-4.78C57.85,12,46.78,9.32,35.69,6.79,27.29,4.87,16.4,1,8.37,5.93,3.57,8.87,0,13.6,0,19.4c0,11,9.14,21.85,17.59,27.91C26.41,53.64,37,56.25,47.43,58.72c2.67.63,5.34-3.47,3-4.16a80,80,0,0,1-23.54-10.9A61.15,61.15,0,0,1,12.22,30c-2.8-3.86-5-10.49.78-12.71,4-1.52,9-.58,13,.25,8.79,1.8,14.64,3.32,22.54,5,9.34,2,18.68,3,28.15,4.19-3.79,19.06-7.56,38.12-11.52,57.16A146.69,146.69,0,0,0,43,91.06c-1.88.77-5.94,6.46-2.08,5.7,7.39-1.47,15-4.65,22.72-5.35-1.06,5.5-2.49,10.77-3.55,16.35-2.49,13-5.9,25.28-6.61,38.84-.64,12.28.56,24,10,33.18,2.42,2.35,6.1-1.31,4.08-5.22-5.71-11-5.35-23.66-3.51-35.94,2-13.54,5.06-26.47,8-39.73.6-2.74,1.25-5.43,1.83-8.17,5-.21,9.75-.29,14.78-.25,5.56,0,10.8.52,16.51-.7,2-.44,7.47-5,3.83-6.88-5.23-2.75-11.45-1.22-17.06-1.18s-10.78.61-16.29,1q5.94-27.45,11.14-55c5.35.31,10.47,1.09,15.87,1.16,18.65.25,35.64-1.86,53.1-8.86C157.19,19.32,161.92,12.86,157.77,13.25Z"/><path d="M425.74,4.87a1.72,1.72,0,0,0-.35-.67,3.81,3.81,0,0,0-.82-.68,22,22,0,0,0-4.89-2.46,16.11,16.11,0,0,0-8-.88C406.92,1,403,4.54,400.24,8.53S395.56,17,393,21.12c-.15.24-5.94-2.42-6.52-2.66-7.81-3.19-15.92-4.84-24.11-6.64-2.62-.57-5.32-.86-7.86-1.45a11.73,11.73,0,0,0-4.95-.5c-3.14,1-3.63,3.71-1,7.53,7.4,10.68,14,21.25,26.91,31.86,13.32,10.93,23.74,21.35,16.36,41.83a61.34,61.34,0,0,1-8.25,15.26A62.24,62.24,0,0,1,374,116.63c-3.7,3.35-8.56,6.11-12,3.67-4.15-3-4.66-7.14-4.53-11.66a64.34,64.34,0,0,1,2.16-13.28c.79-3.27,2.67-7.74.38-10.79-4.09-5.45-9.82-.7-13.38,2.09a99.43,99.43,0,0,0-9.86,9.1c-3.79,3.79-7.7,4.14-8.77-3.7s1.61-25.33,18.59-24c3.8.3,4-5.2.73-5.72-12-1.85-19.79,4-25.79,13.69-3.8,6.15-6,11.88-5.75,18.57a286.64,286.64,0,0,1-13.93,25.82c-3.52,5.81-7.34,11.44-11.1,17.1-2.63,3.94-9.09,13.22-13.8,11.77-2.76-.85-2.39-11.6-1.39-16.43a189.4,189.4,0,0,1,5-19.38c2.53-8.21,6.2-21.68,2.42-25.54-4.09-4.17-13-4.07-20.28-3.62a13.57,13.57,0,0,1,.62-1.21c2.67-4.6,6-11.45,2.81-16.6-.07-.12-.15-.24-.23-.35a10,10,0,0,0-8.67-4,12.44,12.44,0,0,0-8.33,4.25A14.58,14.58,0,0,0,246,71.2c-2,5.53-.7,12,4,15.76l.09.07c.35.24,1.72,1,2.62,1.62-.43.57-2.14,3.4-2.48,3.85-6.87,9.24-18.87,25.87-36,31.92-13.39,4.74-21.71-14.63-19.76-24,23.41-2.67,25.47-18.86,25.31-25.17A13.43,13.43,0,0,0,207,62.14c-9.12-.17-16.1,7.12-20.34,14.39-3.93,6.75-6.62,14.13-6.79,22a46.31,46.31,0,0,0,2.07,14.4,4.47,4.47,0,0,1-.4,2.08,72.13,72.13,0,0,1-8.58,18.55c-2.41,3.74-4.73,8.26-9.27,11.84-2.35,1.85-6,1.7-8.58.15-4.19-2.48-5.46-6.7-5.41-11.2.09-8.79,2.65-16.61,4.74-25,1.69-6.73,6.71-16.08,2.68-20.66a11.31,11.31,0,0,0-5.29-3.06A32.88,32.88,0,0,0,142.64,84c-1.35,0-2.7-.05-4-.09a12.38,12.38,0,0,1-2.72-.21c.32-.74,2.73-5.75,3-6.6,2-6.07,4.12-14.51-5-14.85-6.25-.23-10.49,7.05-11.51,12.67-1,5.26,1.27,8.31,4.68,11.89-2.54,3.68-5.13,6.91-8.05,10.47-.88,1.07-2.68,3.48-1.09,4.84s3.65-1,4.52-2c3.44-3.86,6.35-7.5,9.41-11.51a15.23,15.23,0,0,0,5.79.06A17.43,17.43,0,0,1,146.79,90c2.19,1.11,1.56,4.43,1.23,6.39a80.51,80.51,0,0,1-2,8.07c-2.69,9.7-4.4,15.37-6.31,25.44-1.4,7.41-.63,17.81,5.52,23.47,5.36,4.94,12.55,3.21,17.89-.38,9.85-6.61,16.89-19.44,21-30.29l.55-1.48c.07-.21.64-1.35.54-1.51,7.43,11.69,27.26,13.08,40,6.32,16.54-8.81,23.46-22.67,33.83-36.22,5.26,1,11.23-.88,14.44.49,2.4,1-.12,10.28-1.88,14.71-4.64,11.77-5.38,16.57-7.33,29.21-1.07,6.95,1.27,21.81,10.4,22a6.91,6.91,0,0,0,.79,0c9.24-.35,13.93-9.45,18.69-16,8.64-11.81,15.42-23.91,22.77-36.32a.85.85,0,0,0,.28.59c7.05,6.93,14.4,4.24,21.33-.69,4.34-3.09,6.11-7.48,9.77-10.16s3.08.47,3,3.3c-.37,10.49-7.37,29.58,5.72,33.08,8.5,2.27,15-.48,20.92-7.32,8.36-9.6,18.25-23.74,22.38-35.64,2.29-6.59,1-18.8-2.1-24.16-3.54-6.21-12.51-12.89-18.85-18.29-9.9-8.46-18.68-18.59-27-29.2-.59-.76-1.54-2.26,1.71-1.59,4.62,1,7,1.68,11.37,2.6a116,116,0,0,1,16.16,5,66.87,66.87,0,0,1,7.06,3.22c2.54,1.39,4.86,3.13,7.37,4.59a2.82,2.82,0,0,0,4.19-1.34,1.72,1.72,0,0,0,.12-1.2c-.33-1.09-1.5-1.75-2.36-2.39-.27-.21-1.88-1.22-1.7-1.65a61,61,0,0,1,5.21-10.6,20.34,20.34,0,0,1,8.74-7.73,10.66,10.66,0,0,1,6-.85,14.16,14.16,0,0,1,4.88,2.13,5.65,5.65,0,0,0,2.79,1.13C424.87,6.75,426,5.86,425.74,4.87ZM132.45,79.39c-.32.36-1.53-.78-1.7-1a5.74,5.74,0,0,1-1.06-1.76,6.34,6.34,0,0,1,.26-5.3,1.85,1.85,0,0,1,2.3-.85C136,71.86,134.36,77.21,132.45,79.39ZM196.28,82c1.56-4.57,7.15-14.36,10.51-13.48,5.69,1.49,7,13.28,4,18.23-2.93,4.78-8.93,10.21-13.89,9.48C191.51,95.37,194.85,86.19,196.28,82Zm62.49-3.74a15.85,15.85,0,0,1-1.84,3.9,9.36,9.36,0,0,1-1.76-1.46c-1.49-1.58-2.37-3.12-1.79-5.61a5.71,5.71,0,0,1,2.49-3.63,2.45,2.45,0,0,1,2.53,0,2.87,2.87,0,0,1,1.15,1.82,6,6,0,0,1,0,2.28A14.2,14.2,0,0,1,258.77,78.24Z"/><path d="M457.56,16.28c-4.81,1.21-9.64,3.08-14.42,4.08S433.82,22,429.05,22.9c.22-3.86.12-6.54,4.1-8.5,7.48-3.67,17.71-6.63,25.07-9.11,2.64-.89,3.24-.19,3.46-2s-1.24-1.08-3-.51c-8.47,2.69-18.9,5-27.35,8.52-5.77,2.39-8.46,4.42-9.61,10.84-1.31,7.28,2,15.33,1.38,22.94-.76,8.86-5.3,16.82-10.16,23.77-2.44,3.49-.58,5,2.38,2.15,4.6-4.44,8.17-11,11.18-16.8.07-.14.21-.12.32-.18,7.86-4.7,16-9.2,23.31-14.74,6.28-4.75,14.31-9.87,17.34-17C470.9,14.22,462.79,15,457.56,16.28ZM464.64,21c-1.29,2.13-4.33,5.13-8.16,8.71a68,68,0,0,1-8.85,6.79,214.73,214.73,0,0,1-18.94,11s0-.09,0,0a70.56,70.56,0,0,0,1.67-12.76c.06-2.12-.27-5.65-.47-8,5.27-1.06,10.73-2.19,15.83-3.58,3.44-.94,5.56-1.65,9.18-2.85C457.62,19.4,467.82,15.74,464.64,21Z"/><path d="M416.76,10a2.45,2.45,0,0,0-1.94-1.24A4.73,4.73,0,0,0,410,11.51a3.66,3.66,0,0,0,.23,3.3c1.08,1.62,2.92.83,4.14-.17S417.55,11.72,416.76,10Z"/></g></g></svg>