<svg width="200" height="200" viewBox="0 0 200 200" fill="none" xmlns="http://www.w3.org/2000/svg">
<mask id="mask0" mask-type="alpha" maskUnits="userSpaceOnUse" x="0" y="0" width="200" height="200">
<circle cx="100.092" cy="100.093" r="99.9075" fill="#C4C4C4"/>
</mask>
<g mask="url(#mask0)">
<path d="M154.824 79.5067C156.173 78.9981 157.509 78.4942 158.872 78.0106C159.274 77.8678 159.866 77.6207 160.578 77.3238C164.855 75.5402 173.439 71.9602 170.891 78.4239C169.896 80.9472 166.318 84.5534 163.269 87.6257C162.597 88.3035 161.95 88.9552 161.363 89.5636C158.811 92.2036 154.284 95.8968 150.823 98.4167C143.541 103.71 135.539 108.55 127.775 113.243C127.806 113.006 127.836 112.771 127.866 112.537C128.535 107.327 129.114 102.813 128.997 97.2434C128.957 95.2859 128.575 92.4663 128.237 89.9678C128.12 89.1053 128.009 88.281 127.918 87.5437C134.284 85.8904 141.362 84.0504 147.457 82.1238C150.087 81.2935 152.474 80.3932 154.824 79.5067Z" fill="url(#paint0_linear)"/>
<path fill-rule="evenodd" clip-rule="evenodd" d="M221.5 -5.99988C227.71 2.07993 208.168 56.3844 210 66.3508C213.129 83.3371 231.5 109.31 224 140.522C221.5 196.5 207 224 142.184 208.654C140.779 209.289 133.104 202.717 131.757 203.481C130.233 204.345 128.704 205.211 127.077 205.901C118.349 209.601 109.519 210.161 100.263 208.654C97.0759 208.138 93.9228 207.367 90.7832 206.599C90.1918 206.455 89.6009 206.31 89.0103 206.167C83.0856 204.734 77.188 203.161 71.3379 201.454C71.2915 201.44 71.215 201.41 71.1239 201.373C70.8691 201.271 70.5006 201.123 70.3606 201.168C76.7265 199.028 79.9298 197.861 86.7503 189.448C91.6247 183.436 92.9195 176.887 94.1219 170.805C94.3994 169.402 94.672 168.023 94.9825 166.682C97.2832 156.755 95.5187 147.796 92.1593 137.902L92.1354 137.833C91.8621 137.032 91.4167 135.727 90.1776 134.096C84.7275 126.913 76.4398 120.898 68.6848 115.27C67.5942 114.479 66.5141 113.695 65.4539 112.916C63.8522 111.743 62.3524 110.576 60.8254 109.31C53.9098 103.563 47.5101 97.6767 41.1985 91.1636C37.1944 87.037 33.5228 83.1571 29.4576 78.4172C28.6161 77.4306 28.779 75.8706 31.7651 76.5239C33.915 76.9944 36.39 77.3933 38.8865 77.7957C41.0238 78.1402 43.1768 78.4872 45.1551 78.8839C45.2886 78.9101 45.4304 78.9267 45.5844 78.9446C45.7435 78.9632 45.9156 78.9833 46.1052 79.0172C52.9122 80.1905 60.2214 81.9971 66.6483 84.1171C70.1842 85.2837 72.607 86.177 75.851 87.6637C77.4843 88.4122 79.0626 89.3195 80.6508 90.2326C82.2169 91.133 83.7928 92.0389 85.4405 92.8035C87.6462 93.8302 89.6007 92.9835 90.6119 90.7836C90.8223 90.3369 90.8359 89.7969 90.6187 89.3569C90.0189 88.1351 88.9549 87.4903 87.7713 86.7729C87.6827 86.7192 87.5934 86.6651 87.5037 86.6103C87.4541 86.5802 87.3845 86.5397 87.3005 86.4909C86.6602 86.1185 85.1819 85.2588 85.3319 84.7637C86.0853 82.2638 87.049 79.9038 88.0059 77.6239C88.956 75.344 89.8858 73.3307 91.1684 71.2707C93.8424 66.9841 97.1271 63.5909 101.613 61.1843C102.889 60.5043 104.301 60.1376 105.583 59.8777C106.859 59.611 107.891 59.571 109.092 59.731C111.395 60.0362 113.322 60.995 115.36 62.0096L115.39 62.0243C115.56 62.1087 115.729 62.1963 115.898 62.2839C116.863 62.7838 117.828 63.2837 118.96 63.2042C120.29 63.1109 121.383 62.1376 121.193 60.7843C121.152 60.4662 120.951 60.2469 120.701 59.9757L120.697 59.971C120.446 59.6977 120.025 59.4043 119.652 59.1977C117.609 58.091 115.587 57.1311 113.313 56.4977C109.974 55.5711 106.696 55.3044 103.262 55.9244C102.699 56.0244 101.79 56.3044 101.267 56.5244C96.0684 58.731 92.5122 62.3509 89.3903 66.9575C88.5327 68.2272 87.881 69.5213 87.2237 70.8265C86.7939 71.6799 86.3618 72.5381 85.8681 73.3973C85.224 74.515 84.7351 75.6614 84.2475 76.8049C83.3477 78.9148 82.4522 81.0144 80.5949 82.9038C80.3098 83.1971 73.9847 80.7372 72.6816 80.1838C71.4464 79.653 70.0404 79.2599 68.7007 78.8854C68.6272 78.8648 68.5538 78.8443 68.4807 78.8239C61.538 76.8839 54.6021 75.5706 47.3472 74.3773C47.0362 74.3254 46.6684 74.2626 46.2687 74.1944C44.8715 73.9558 43.0841 73.6506 41.9654 73.5107C40.7855 73.3635 39.6385 73.2102 38.5061 73.0589C36.3034 72.7645 34.1556 72.4775 31.928 72.2574C31.3322 72.2 30.7349 72.0713 30.1366 71.9424C28.6493 71.6221 27.1565 71.3005 25.6707 72.0707C21.4969 74.2373 21.8498 77.2772 25.1006 81.4705L25.4942 81.9789C29.6882 87.3966 34.4425 93.5382 39.5222 99.31C44.7615 105.263 51.8399 111.95 58.3687 116.983C58.5764 117.143 58.8428 117.353 59.1261 117.577C59.7867 118.099 60.5391 118.694 60.8526 118.89C70.8561 125.163 81.6332 136.183 84.8026 145.516C89.1392 158.275 87.429 165.762 84.2257 176.522C81.9386 184.215 77.5205 191.168 70.5099 193.928C62.0606 197.254 29.8658 210.3 23.4999 205C7.60562 191.76 -1.48271 218.347 -8.50009 203.481C-12.5924 194.808 -14.2212 110.29 -8.50012 75.7443C-6.15194 61.5313 -27.5874 16.1595 2.99992 -5.99993C34.4492 -28.7727 107.368 -9.16731 115.804 -7.76735C151.108 -1.92749 209.922 -21.0662 221.5 -5.99988ZM101.898 70.0107C101.369 71.3374 101.491 72.984 102.4 74.0306C103.975 75.8439 105.95 75.004 107.565 73.5773C109.18 72.1574 111.148 70.0574 110.198 67.7508C109.818 66.8308 108.807 66.3842 107.707 66.3508C105.203 66.2775 102.841 67.6441 101.898 70.0107ZM156.955 99.4308C163.92 93.815 171.626 87.602 174.488 79.7838C178.207 69.6241 168.387 71.084 162.123 72.844C159.13 73.6848 156.278 74.7204 153.459 75.7443C150.377 76.8635 147.333 77.9689 144.186 78.7905C140.156 79.8425 136.321 80.6888 132.424 81.5487C130.493 81.9748 128.546 82.4043 126.554 82.8638C126.585 82.3799 126.61 81.91 126.633 81.4536C126.84 77.4768 126.994 74.5161 131.298 72.124C138.225 68.274 147.141 64.9036 154.987 61.9375C157.358 61.0413 159.631 60.1821 161.722 59.3577C162.747 58.9532 163.538 58.7598 164.148 58.6105C165.468 58.2875 165.941 58.1716 166.113 56.5711C166.333 54.5217 164.872 55.111 163.042 55.8487C162.782 55.9533 162.515 56.0609 162.245 56.1644C158.487 57.5949 154.408 58.9495 150.245 60.3314C142.905 62.7684 135.308 65.2905 128.773 68.4641C121.776 71.864 118.464 74.624 117.412 82.5638C116.772 87.4018 117.787 92.449 118.809 97.5323C119.693 101.926 120.582 106.347 120.412 110.683C120.046 120.043 116.143 128.603 111.779 136.649C111.255 137.624 110.522 138.779 109.98 139.635C109.751 139.996 109.556 140.304 109.424 140.522C108.271 142.456 106.981 145.876 110.137 144.909C111.135 144.609 111.63 144.076 112.499 143.096C118.003 136.883 121.864 129.283 125.4 121.73C125.46 121.603 125.569 121.565 125.667 121.532C125.714 121.515 125.759 121.5 125.794 121.476C127.809 120.133 129.846 118.798 131.888 117.459C139.492 112.476 147.172 107.442 154.121 101.73C155.042 100.973 155.991 100.208 156.955 99.4308Z" fill="url(#paint1_linear)"/>
</g>
<defs>
<linearGradient id="paint0_linear" x1="34.5" y1="10" x2="177" y2="202" gradientUnits="userSpaceOnUse">
<stop stop-color="#7AE2CF"/>
<stop offset="1" stop-color="#DBC6FF"/>
</linearGradient>
<linearGradient id="paint1_linear" x1="34.5" y1="10" x2="177" y2="202" gradientUnits="userSpaceOnUse">
<stop stop-color="#7AE2CF"/>
<stop offset="1" stop-color="#DBC6FF"/>
</linearGradient>
</defs>
</svg>
