<svg xmlns="http://www.w3.org/2000/svg" viewBox="0 0 120.46 42.36"><defs><style>.cls-1,.cls-2{fill:#414042;}.cls-2{font-size:6.17px;font-family:Montserrat-Medium, Montserrat;font-weight:500;}.cls-3{letter-spacing:-0.01em;}.cls-4{letter-spacing:0em;}.cls-5{letter-spacing:0em;}</style></defs><g id="Layer_2" data-name="Layer 2"><g id="Layer_4" data-name="Layer 4"><path class="cls-1" d="M75.21,3.46c-1.4.13-2.78.75-4.22.88a29.22,29.22,0,0,1-4.68.11q-3.7-.27-7.37-.88c-2.06-.35-4.09-.83-6.12-1.3-1.54-.35-3.54-1.06-5-.15a2.94,2.94,0,0,0-1.54,2.47c0,2,1.68,4,3.23,5.12A15.05,15.05,0,0,0,55,11.8c.49.12,1-.64.54-.76a14.77,14.77,0,0,1-4.32-2,11.42,11.42,0,0,1-2.68-2.51c-.51-.71-.92-1.93.15-2.33a4.48,4.48,0,0,1,2.38,0c1.61.33,2.69.61,4.14.92,1.71.37,3.42.54,5.16.77-.7,3.5-1.39,7-2.11,10.48a27.39,27.39,0,0,0-4.08,1.32c-.34.14-1.09,1.19-.38,1.05a40.83,40.83,0,0,1,4.17-1c-.2,1-.46,2-.66,3a52.54,52.54,0,0,0-1.21,7.13c-.11,2.25.11,4.4,1.84,6.08.44.43,1.12-.24.75-1A10.72,10.72,0,0,1,58,26.45c.37-2.48.93-4.85,1.47-7.28.11-.51.23-1,.33-1.5.92,0,1.79-.05,2.71-.05a12.9,12.9,0,0,0,3-.13c.37-.08,1.37-.91.7-1.26-1-.5-2.1-.22-3.12-.22s-2,.12-3,.18c.72-3.35,1.41-6.72,2-10.09,1,.05,1.92.19,2.91.21a24.37,24.37,0,0,0,9.74-1.63C75.1,4.57,76,3.39,75.21,3.46Z"/><path class="cls-1" d="M119.7,16.23c-.27-.07-.58.22-.77.38a5.09,5.09,0,0,0-1.07,1.79,11.29,11.29,0,0,1-1.24,2.13,11.79,11.79,0,0,1-1.76,1.89c-.68.62-1.57,1.12-2.19.67a2.24,2.24,0,0,1-.84-2.13,12.55,12.55,0,0,1,.4-2.44c.15-.6.49-1.42.07-2-.75-1-1.8-.13-2.45.38A17.82,17.82,0,0,0,108,18.59c-.7.7-1.41.76-1.61-.68s.29-4.64,3.41-4.4a.53.53,0,0,0,.13-1c-2.19-.34-3.63.73-4.73,2.51a5.9,5.9,0,0,0-1,3.41,50.35,50.35,0,0,1-2.56,4.73c-.64,1.07-1.34,2.1-2,3.14-.48.72-1.67,2.42-2.53,2.16-.51-.16-.44-2.13-.26-3a35.69,35.69,0,0,1,.91-3.55c.47-1.51,1.14-4,.45-4.68s-2.38-.75-3.72-.67a1.51,1.51,0,0,1,.11-.22c.49-.84,1.09-2.1.52-3l0-.07a1.84,1.84,0,0,0-1.59-.73,2.22,2.22,0,0,0-1.53.78,2.49,2.49,0,0,0-.54.88,2.56,2.56,0,0,0,.75,2.9c.07.05.32.19.48.3-.08.1-.39.62-.45.71-1.26,1.69-3.46,4.74-6.6,5.85-2.46.87-4-2.68-3.63-4.4,4.3-.49,4.68-3.46,4.65-4.61a2.47,2.47,0,0,0-2.35-2.41c-1.67,0-3,1.3-3.73,2.64a8.47,8.47,0,0,0-1.25,4,8.69,8.69,0,0,0,.38,2.64c0,.11,0,.28-.07.38A13.18,13.18,0,0,1,78,25.53a8.16,8.16,0,0,1-1.7,2.17,1.46,1.46,0,0,1-1.58,0,2.18,2.18,0,0,1-1-2.06,19.82,19.82,0,0,1,.87-4.58c.31-1.23,1.23-2.95.49-3.79a2.11,2.11,0,0,0-1-.56,6,6,0,0,0-1.68-.3l-.74,0a1.69,1.69,0,0,1-.5,0c.06-.13.5-1,.56-1.21.37-1.11.75-2.66-.91-2.72-1.15,0-1.93,1.29-2.11,2.32A2.28,2.28,0,0,0,69.58,17c-.46.68-.94,1.27-1.47,1.92-.16.2-.49.64-.2.89s.67-.18.83-.36c.63-.71,1.16-1.38,1.72-2.11a2.75,2.75,0,0,0,1.07,0,3.14,3.14,0,0,1,1.66.23c.4.2.29.81.23,1.17a15.24,15.24,0,0,1-.37,1.48c-.49,1.78-.8,2.82-1.15,4.67-.26,1.36-.12,3.26,1,4.3a2.58,2.58,0,0,0,3.28-.07A11.81,11.81,0,0,0,80,23.53c0-.09.07-.18.1-.28s.12-.24.1-.27c1.36,2.14,5,2.4,7.33,1.16,3-1.62,4.3-4.16,6.2-6.65,1,.19,2.06-.16,2.65.09.44.19,0,1.89-.34,2.7a19.54,19.54,0,0,0-1.35,5.36c-.2,1.27.23,4,1.91,4h.14c1.7-.06,2.56-1.73,3.43-2.93,1.58-2.16,2.83-4.38,4.18-6.66a.16.16,0,0,0,0,.11c1.29,1.27,2.64.78,3.91-.13.8-.56,1.12-1.37,1.79-1.86s.57.09.55.61c-.07,1.92-1.35,5.42,1,6.06a3.49,3.49,0,0,0,3.83-1.34A22.53,22.53,0,0,0,119.68,17a1.74,1.74,0,0,0,.13-.6C119.8,16.3,119.76,16.24,119.7,16.23Zm-49.14-.64c-.06.07-.28-.14-.31-.18a.94.94,0,0,1-.19-.32,1.14,1.14,0,0,1,0-1,.34.34,0,0,1,.42-.16C71.21,14.21,70.91,15.19,70.56,15.59Zm11.71.48c.29-.84,1.31-2.64,1.93-2.48,1,.28,1.28,2.44.73,3.35s-1.64,1.87-2.55,1.73S82,16.84,82.27,16.07Zm11.6-1.19a2.85,2.85,0,0,1-.14.5,2.58,2.58,0,0,1-.34.71,2.13,2.13,0,0,1-.32-.26,1,1,0,0,1-.33-1,1.11,1.11,0,0,1,.46-.67.45.45,0,0,1,.46,0,.53.53,0,0,1,.21.33A1,1,0,0,1,93.87,14.88Z"/><path class="cls-1" d="M36.33,8.17a20.33,20.33,0,0,0-3-3.31c-3-2.6-12.47-7.35-21.89-3.27a19.21,19.21,0,0,0-8,6.32C-1.4,14.67.06,22.52.77,25.83c1.69,7.85,4.86,11.86,10,14.23,2.08,1,4-.74,4.16-.82,2.86-1.74,3.22-3.54,3.82-6.19a9.14,9.14,0,0,0-.49-5.15,2.4,2.4,0,0,0-.35-.68,21.2,21.2,0,0,0-4.35-3.79c-.28-.21-.54-.42-.81-.65a42.13,42.13,0,0,1-3.45-3.24C8.64,18.8,8,18.1,7.28,17.26c-.15-.18-.13-.46.4-.34.7.15,1.6.27,2.35.42l.17,0a25.45,25.45,0,0,1,3.61.92,12.1,12.1,0,0,1,1.62.63c.57.27,1.1.64,1.68.92a.64.64,0,0,0,.91-.36.3.3,0,0,0,0-.26,1.29,1.29,0,0,0-.54-.49c-.08,0-.41-.23-.38-.33a12.08,12.08,0,0,1,.47-1.28A7.38,7.38,0,0,1,18.12,16,4.84,4.84,0,0,1,20,14.17a2.34,2.34,0,0,1,.69-.23,1.64,1.64,0,0,1,.62,0,3.62,3.62,0,0,1,1.11.41,1.19,1.19,0,0,0,.63.21.39.39,0,0,0,.39-.43.27.27,0,0,0-.09-.15.83.83,0,0,0-.18-.13A5.59,5.59,0,0,0,22,13.33a3.88,3.88,0,0,0-1.76-.1,2,2,0,0,0-.35.11,4.71,4.71,0,0,0-2.09,1.86c-.25.38-.4.77-.62,1.16a6.6,6.6,0,0,1-.93,1.7,8.78,8.78,0,0,1-1.39-.49,5.82,5.82,0,0,0-.74-.24,32.6,32.6,0,0,0-3.71-.8l-.95-.15c-.61-.08-1.17-.17-1.76-.23-.37,0-.73-.23-1.1,0-.73.39-.67.93-.1,1.68.75,1,1.61,2.13,2.53,3.19a24.91,24.91,0,0,0,3.32,3.16c.12.1.35.29.43.34A11,11,0,0,1,17,29.26a8,8,0,0,1-.1,5.55,4.54,4.54,0,0,1-2.41,3.11A4.69,4.69,0,0,1,10,37.13a21.38,21.38,0,0,1-6-7.35A21.82,21.82,0,0,1,2.38,17.3C2.8,14.76,3.79,8.67,9.16,4.71,14.69.63,21,1.58,22.45,1.83A19.58,19.58,0,0,1,34.66,9.58a11.47,11.47,0,0,1,2.15,4.91,25.4,25.4,0,0,1-.64,12,25.13,25.13,0,0,1-2.29,5.2,22.14,22.14,0,0,1-1.54,2c-2.12,2.87-3.45,3.44-5.25,4.81a11.53,11.53,0,0,1-1.91,1.12,9.3,9.3,0,0,1-1.24.57,4.72,4.72,0,0,0-1.2.52.83.83,0,0,0-.23,1,.92.92,0,0,0,.81.62,5.19,5.19,0,0,0,2.06-.51,24.81,24.81,0,0,0,5.08-2.59c1.77-1.14,4.22-4.34,4.95-5.48a26.64,26.64,0,0,0,3.84-10.53C39.91,17.24,39.48,12.73,36.33,8.17Z"/><path class="cls-1" d="M30.59,16.26c-1.1.31-2.09.78-3.15,1.06s-2,.48-3.1.73c.05-.84,0-1.44.83-1.92a48.05,48.05,0,0,1,5.35-2.29c.57-.22.73-.08.77-.49s-.3-.23-.68-.08c-1.82.71-4.08,1.31-5.88,2.2a2.88,2.88,0,0,0-2,2.53c-.21,1.61.59,3.35.53,5a10.79,10.79,0,0,1-1.52,4.64c-.13.25-.33.56-.41.7-.2.34-.43.95.12.78a.84.84,0,0,0,.42-.32A15.81,15.81,0,0,0,24.14,25s.05,0,.06,0c1.68-1.14,3.43-2.24,5-3.53,1.33-1.12,3-2.34,3.58-3.93C33.42,15.68,31.69,15.94,30.59,16.26Zm1.54,1a9,9,0,0,1-1.67,2,16.71,16.71,0,0,1-1.86,1.58c-1.28,1-2.68,1.82-4.05,2.66a18,18,0,0,0,.22-2.87c0-.47-.13-1.22-.19-1.73,1.12-.3,2.36-.63,3.43-1,.73-.24,1.35-.5,2-.74C30.51,17,32.65,15.91,32.13,17.25Z"/><path class="cls-1" d="M21.46,15.35A.43.43,0,0,0,21,15.1a1,1,0,0,0-1,.65.71.71,0,0,0,.08.72c.28.32.63.17.91-.08S21.63,15.76,21.46,15.35Z"/><text class="cls-2" transform="translate(63.29 40.23)">S<tspan class="cls-3" x="3.83" y="0">e</tspan><tspan class="cls-4" x="7.52" y="0">a</tspan><tspan class="cls-5" x="11.21" y="0">m</tspan><tspan x="17.75" y="0">os el cambio</tspan></text></g></g></svg>